HIERARCHY
ROOT hip
{
  OFFSET -0.955035 80.0965 30.4819
  CHANNELS 6 Xposition Yposition Zposition Zrotation Xrotation Yrotation
  JOINT abdomen
  {
    OFFSET 0 20.6881 -0.73152
    CHANNELS 3 Zrotation Xrotation Yrotation
    JOINT chest
    {
      OFFSET 0 11.7043 -0.48768
      CHANNELS 3 Zrotation Xrotation Yrotation
      JOINT neck
      {
        OFFSET 0 22.1894 -2.19456
        CHANNELS 3 Zrotation Xrotation Yrotation
        JOINT head
        {
          OFFSET -0.24384 7.07133 1.2192
          CHANNELS 3 Zrotation Xrotation Yrotation
          JOINT leftEye
          {
            OFFSET 4.14528 8.04674 8.04672
            CHANNELS 3 Zrotation Xrotation Yrotation
            End Site
            {
              OFFSET 1 0 0
            }
          }
          JOINT rightEye
          {
            OFFSET -3.6576 8.04674 8.04672
            CHANNELS 3 Zrotation Xrotation Yrotation
            End Site
            {
              OFFSET 1 0 0
            }
          }
        }
      }
      JOINT rCollar
      {
        OFFSET -2.68224 19.2634 -4.8768
        CHANNELS 3 Zrotation Xrotation Yrotation
        JOINT rShldr
        {
          OFFSET -8.77824 -1.95073 1.46304
          CHANNELS 3 Zrotation Xrotation Yrotation
          JOINT rForeArm
          {
            OFFSET -28.1742 -1.7115 0.48768
            CHANNELS 3 Zrotation Xrotation Yrotation
            JOINT rHand
            {
              OFFSET -22.5879 0.773209 7.07136
              CHANNELS 3 Zrotation Xrotation Yrotation
              JOINT rThumb1
              {
                OFFSET -1.2192 -0.487915 3.41376
                CHANNELS 3 Zrotation Xrotation Yrotation
                JOINT rThumb2
                {
                  OFFSET -3.37035 -0.52449 3.41376
                  CHANNELS 3 Zrotation Xrotation Yrotation
                  End Site
                  {
                    OFFSET -1.78271 -1.18214 1.43049
                  }
                }
              }
              JOINT rIndex1
              {
                OFFSET -7.75947 0.938293 5.60832
                CHANNELS 3 Zrotation Xrotation Yrotation
                JOINT rIndex2
                {
                  OFFSET -2.54057 -0.884171 1.56538
                  CHANNELS 3 Zrotation Xrotation Yrotation
                  End Site
                  {
                    OFFSET -1.62519 -0.234802 1.16502
                  }
                }
              }
              JOINT rMid1
              {
                OFFSET -8.24714 1.18213 3.41376
                CHANNELS 3 Zrotation Xrotation Yrotation
                JOINT rMid2
                {
                  OFFSET -3.10165 -0.590103 1.0647
                  CHANNELS 3 Zrotation Xrotation Yrotation
                  End Site
                  {
                    OFFSET -2.48547 -0.328903 0.83742
                  }
                }
              }
              JOINT rRing1
              {
                OFFSET -8.82822 0.546677 1.51678
                CHANNELS 3 Zrotation Xrotation Yrotation
                JOINT rRing2
                {
                  OFFSET -2.60934 -0.819778 -0.0198488
                  CHANNELS 3 Zrotation Xrotation Yrotation
                  End Site
                  {
                    OFFSET -2.33842 -0.294052 0.168128
                  }
                }
              }
              JOINT rPinky1
              {
                OFFSET -8.27202 -0.0477905 -0.4584
                CHANNELS 3 Zrotation Xrotation Yrotation
                JOINT rPinky2
                {
                  OFFSET -1.82734 -0.647385 -0.700984
                  CHANNELS 3 Zrotation Xrotation Yrotation
                  End Site
                  {
                    OFFSET -1.69225 -0.51767 -0.607171
                  }
                }
              }
            }
          }
        }
      }
      JOINT lCollar
      {
        OFFSET 2.68224 19.2634 -4.8768
        CHANNELS 3 Zrotation Xrotation Yrotation
        JOINT lShldr
        {
          OFFSET 8.77824 -1.95073 1.46304
          CHANNELS 3 Zrotation Xrotation Yrotation
          JOINT lForeArm
          {
            OFFSET 28.1742 -1.7115 0.48768
            CHANNELS 3 Zrotation Xrotation Yrotation
            JOINT lHand
            {
              OFFSET 22.5879 0.773209 7.07136
              CHANNELS 3 Zrotation Xrotation Yrotation
              JOINT lThumb1
              {
                OFFSET 1.2192 -0.487915 3.41376
                CHANNELS 3 Zrotation Xrotation Yrotation
                JOINT lThumb2
                {
                  OFFSET 3.37035 -0.52449 3.41376
                  CHANNELS 3 Zrotation Xrotation Yrotation
                  End Site
                  {
                    OFFSET 1.78271 -1.18214 1.43049
                  }
                }
              }
              JOINT lIndex1
              {
                OFFSET 7.75947 0.938293 5.60832
                CHANNELS 3 Zrotation Xrotation Yrotation
                JOINT lIndex2
                {
                  OFFSET 2.54057 -0.884171 1.56538
                  CHANNELS 3 Zrotation Xrotation Yrotation
                  End Site
                  {
                    OFFSET 1.62519 -0.234802 1.16502
                  }
                }
              }
              JOINT lMid1
              {
                OFFSET 8.24714 1.18213 3.41376
                CHANNELS 3 Zrotation Xrotation Yrotation
                JOINT lMid2
                {
                  OFFSET 3.10165 -0.590103 1.0647
                  CHANNELS 3 Zrotation Xrotation Yrotation
                  End Site
                  {
                    OFFSET 2.48547 -0.328903 0.83742
                  }
                }
              }
              JOINT lRing1
              {
                OFFSET 8.82822 0.546677 1.51678
                CHANNELS 3 Zrotation Xrotation Yrotation
                JOINT lRing2
                {
                  OFFSET 2.60934 -0.819778 -0.0198488
                  CHANNELS 3 Zrotation Xrotation Yrotation
                  End Site
                  {
                    OFFSET 2.33842 -0.294052 0.168128
                  }
                }
              }
              JOINT lPinky1
              {
                OFFSET 8.27202 -0.0477905 -0.4584
                CHANNELS 3 Zrotation Xrotation Yrotation
                JOINT lPinky2
                {
                  OFFSET 1.82734 -0.647385 -0.700984
                  CHANNELS 3 Zrotation Xrotation Yrotation
                  End Site
                  {
                    OFFSET 1.69225 -0.51767 -0.607171
                  }
                }
              }
            }
          }
        }
      }
    }
  }
  JOINT rButtock
  {
    OFFSET -8.77824 4.35084 1.2192
    CHANNELS 3 Zrotation Xrotation Yrotation
    JOINT rThigh
    {
      OFFSET 0 -1.70687 -2.19456
      CHANNELS 3 Zrotation Xrotation Yrotation
      JOINT rShin
      {
        OFFSET 0 -36.8199 0.73152
        CHANNELS 3 Zrotation Xrotation Yrotation
        JOINT rFoot
        {
          OFFSET 0.73152 -45.1104 -5.12064
          CHANNELS 3 Zrotation Xrotation Yrotation
          End Site
          {
            OFFSET -1.1221 -3.69964 12.103
          }
        }
      }
    }
  }
  JOINT lButtock
  {
    OFFSET 8.77824 4.35084 1.2192
    CHANNELS 3 Zrotation Xrotation Yrotation
    JOINT lThigh
    {
      OFFSET 0 -1.70687 -2.19456
      CHANNELS 3 Zrotation Xrotation Yrotation
      JOINT lShin
      {
        OFFSET 0 -36.8199 0.73152
        CHANNELS 3 Zrotation Xrotation Yrotation
        JOINT lFoot
        {
          OFFSET -0.73152 -45.1104 -5.12064
          CHANNELS 3 Zrotation Xrotation Yrotation
          End Site
          {
            OFFSET 1.1221 -3.69964 12.103
          }
        }
      }
    }
  }
}
MOTION
Frames:	4
Frame Time:	0.00833333
40.247 85.415 -31.3718 -1.27365 0.00383537 0.0239682 1.67535 -0.00249569 0.045594 0.461924 0.00238666 0.0799897 1.82926e-014 0 5.96354e-016 5.49609e-014 3.18055e-015 1.8605e-015 -0 0 0 -0 0 0 9.19307e-015 5.28022e-017 3.97569e-016 1.94423e-013 1.0312e-015 7.95139e-015 3.30783e-012 -9.49992e-013 8.26944e-014 3.77184e-011 1.18314e-012 1.38036e-012 8.89918e-011 5.0305e-013 3.18055e-012 1.5367e-010 8.65111e-013 5.48328e-012 8.89955e-011 5.02925e-013 3.18055e-012 7.73091 5.47488 0.417314 8.89921e-011 5.03223e-013 3.18374e-012 2.90554 0.965183 0.102902 8.89985e-011 5.03621e-013 3.17896e-012 10.2786 0.731801 0.0259123 8.89899e-011 5.02528e-013 3.1901e-012 2.22167 -0.733487 -0.20892 9.09572e-015 5.28022e-017 9.93923e-017 1.8935e-013 1.22377e-015 6.36111e-015 3.28695e-012 1.0309e-012 1.11319e-013 3.77533e-011 -7.98096e-013 1.37082e-012 8.90227e-011 5.00879e-013 3.18055e-012 1.53738e-010 8.68291e-013 5.49759e-012 8.90182e-011 5.02528e-013 3.1901e-012 -7.73091 5.47488 -0.417314 8.90212e-011 5.00937e-013 3.18055e-012 -2.90554 0.965183 -0.102902 8.90144e-011 5.01236e-013 3.18374e-012 -10.2786 0.731801 -0.0259123 8.90243e-011 5.02528e-013 3.18374e-012 -2.22167 -0.733487 0.20892 -2.03217e-016 0 -3.88251e-019 1.77145 -6.7937 -0.16803 0.00305963 6.74202 0.083009 -0.520636 0.0465902 0.0600684 2.03217e-016 0 3.88251e-019 0.77807 -1.92427 0.00415454 0.00908506 -2.07858 0.0749284 0.493058 3.99766 -0.137495 
40.6933 83.582 -33.8949 -3.18426 1.64488 10.6558 0.536512 0.550887 5.58279 0.619733 1.45482 1.63652 -3.96606 4.75131 -3.68368 5.81514 -10.0325 -5.74214 -0 0 0 -0 0 0 4.44401e-014 1.43309e-013 -1.8088e-013 22.164 28.4176 14.912 -16.223 -13.5892 14.8259 0.0295277 -4.0335 -0.562483 -6.84483e-010 -1.31254e-009 -7.74418e-010 -1.17547e-009 -2.28119e-009 -1.34141e-009 -6.8448e-010 -1.31254e-009 -7.74428e-010 7.73091 5.47488 0.417314 -6.84485e-010 -1.31254e-009 -7.74419e-010 2.90554 0.965183 0.102902 -6.84477e-010 -1.31254e-009 -7.74422e-010 10.2786 0.731801 0.0259123 -6.84487e-010 -1.31254e-009 -7.74414e-010 2.22167 -0.733487 -0.20892 4.43105e-014 1.43307e-013 -1.81163e-013 -17.003 6.30991 3.77246 -2.3967 14.8057 42.3148 -0.186614 -9.61206 1.28335 1.39303e-009 1.27712e-010 -1.92848e-010 2.41294e-009 2.03194e-010 -2.93473e-010 1.39302e-009 1.27713e-010 -1.92839e-010 -7.73091 5.47488 -0.417314 1.39303e-009 1.27712e-010 -1.92849e-010 -2.90554 0.965183 -0.102902 1.39302e-009 1.27712e-010 -1.92845e-010 -10.2786 0.731801 -0.0259123 1.39303e-009 1.27713e-010 -1.92847e-010 -2.22167 -0.733487 0.20892 -2.03217e-016 0 -3.88251e-019 0.989837 -4.52066 0.451753 0.0324603 11.99 0.209003 0.191066 6.25135 -8.67823 2.03217e-016 0 3.88251e-019 3.09932 -10.3807 -3.30368 -0.00247807 6.5276 -0.0660695 -0.152476 0.718931 -6.49212 
40.9078 83.479 -34.0429 -5.85816 3.19416 21.8351 -0.800163 1.12922 11.3723 0.714549 2.97989 3.26605 -7.4771 9.69806 -7.66179 9.64441 -20.3238 -12.4104 -0 0 0 -0 0 0 8.64157e-014 2.78708e-013 -3.81173e-013 21.941 50.6033 45.8895 -25.3964 -24.7523 32.9747 -0.0292905 -8.44797 -1.1882 -1.55986e-009 -2.71953e-009 -1.61396e-009 -2.67993e-009 -4.7271e-009 -2.79575e-009 -1.55986e-009 -2.71953e-009 -1.61398e-009 7.73091 5.47488 0.417314 -1.55986e-009 -2.71953e-009 -1.61397e-009 2.90554 0.965183 0.102902 -1.55985e-009 -2.71952e-009 -1.61397e-009 10.2786 0.731801 0.0259123 -1.55986e-009 -2.71952e-009 -1.61397e-009 2.22167 -0.733487 -0.20892 8.625e-014 2.78704e-013 -3.8144e-013 -35.8663 12.8355 7.90863 -18.2726 4.18891 85.0735 0.111331 -19.7907 2.77066 2.83953e-009 2.71692e-010 -4.24717e-010 4.91939e-009 4.32615e-010 -6.50105e-010 2.83952e-009 2.7169e-010 -4.2471e-010 -7.73091 5.47488 -0.417314 2.83953e-009 2.71691e-010 -4.24719e-010 -2.90554 0.965183 -0.102902 2.83952e-009 2.71691e-010 -4.24715e-010 -10.2786 0.731801 -0.0259123 2.83953e-009 2.71692e-010 -4.2472e-010 -2.22167 -0.733487 0.20892 -2.03217e-016 0 -3.88251e-019 0.0870328 -2.1607 1.08437 0.0362545 17.5665 0.346623 3.08284 12.6224 -18.1113 2.03217e-016 0 3.88251e-019 4.45629 -19.197 -7.07179 0.0326132 15.62 -0.222398 -1.61496 -2.69583 -13.1573 
40.9201 83.383 -34.0169 -8.73183 4.25453 32.0048 -2.05714 1.59563 16.6631 0.698319 4.34647 4.76172 -10.0305 14.0148 -11.3553 10.8019 -28.8032 -19.4467 -0 0 0 -0 0 0 1.14934e-013 4.2982e-013 -5.43434e-013 1.72953 50.7027 87.2363 -27.5895 -29.2641 51.6994 -0.153557 -12.0958 -1.7215 -2.23143e-009 -3.93863e-009 -2.32961e-009 -3.83374e-009 -6.8453e-009 -4.03521e-009 -2.23143e-009 -3.93863e-009 -2.32965e-009 7.73091 5.47488 0.417314 -2.23144e-009 -3.93863e-009 -2.32963e-009 2.90554 0.965183 0.102902 -2.23143e-009 -3.93862e-009 -2.32962e-009 10.2786 0.731801 0.0259123 -2.23144e-009 -3.93862e-009 -2.32962e-009 2.22167 -0.733487 -0.20892 1.1474e-013 4.29814e-013 -5.43688e-013 -53.5997 18.5926 11.8769 -22.6439 -26.8689 107.718 0.885334 -28.7741 4.3317 4.00104e-009 3.82135e-010 -5.84904e-010 6.93134e-009 6.07846e-010 -8.91413e-010 4.00103e-009 3.82133e-010 -5.84898e-010 -7.73091 5.47488 -0.417314 4.00104e-009 3.82135e-010 -5.84908e-010 -2.90554 0.965183 -0.102902 4.00103e-009 3.82134e-010 -5.84903e-010 -10.2786 0.731801 -0.0259123 4.00104e-009 3.82135e-010 -5.8491e-010 -2.22167 -0.733487 0.20892 -2.03217e-016 0 -3.88251e-019 -0.720694 0.0250566 1.68474 0.0163981 22.4855 0.485359 7.28183 16.905 -27.2678 2.03217e-016 0 3.88251e-019 4.52152 -26.9165 -10.9562 0.109768 23.7395 -0.378728 -3.59128 -5.4996 -19.2928 
